<?xml version="1.0" encoding="UTF-8" standalone="no"?>
<!-- Created with Inkscape (http://www.inkscape.org/) -->

<svg
   width="590.97473mm"
   height="531.50299mm"
   viewBox="0 0 590.97475 531.50301"
   version="1.1"
   id="svg2089"
   xml:space="preserve"
   inkscape:version="1.2.2 (732a01da63, 2022-12-09, custom)"
   sodipodi:docname="open_source_hardware.svg"
   xmlns:inkscape="http://www.inkscape.org/namespaces/inkscape"
   xmlns:sodipodi="http://sodipodi.sourceforge.net/DTD/sodipodi-0.dtd"
   xmlns="http://www.w3.org/2000/svg"
   xmlns:svg="http://www.w3.org/2000/svg"><sodipodi:namedview
     id="namedview2091"
     pagecolor="#ffffff"
     bordercolor="#000000"
     borderopacity="0.25"
     inkscape:showpageshadow="2"
     inkscape:pageopacity="0.0"
     inkscape:pagecheckerboard="0"
     inkscape:deskcolor="#d1d1d1"
     inkscape:document-units="mm"
     showgrid="false"
     inkscape:zoom="0.50284332"
     inkscape:cx="1020.1985"
     inkscape:cy="458.39328"
     inkscape:window-width="1920"
     inkscape:window-height="1016"
     inkscape:window-x="0"
     inkscape:window-y="0"
     inkscape:window-maximized="1"
     inkscape:current-layer="g2253" /><defs
     id="defs2086" /><g
     inkscape:label="Layer 1"
     inkscape:groupmode="layer"
     id="layer1"
     transform="translate(-90.119516,194.2868)"><path
       style="fill:#fff6d5;stroke-width:0.153028"
       d=""
       id="path2194"
       transform="scale(0.26458333)" /><path
       style="fill:#fff6d5;stroke-width:0.153028"
       d=""
       id="path2196"
       transform="scale(0.26458333)" /><path
       style="fill:#fff6d5;stroke-width:0.153028"
       d=""
       id="path2200"
       transform="scale(0.26458333)" /><path
       style="fill:#fff6d5;stroke-width:0.153028"
       d=""
       id="path2202"
       transform="scale(0.26458333)" /><path
       style="fill:#fff6d5;stroke-width:0.0335232"
       d=""
       id="path2204"
       transform="scale(0.26458333)" /><path
       style="fill:#fff6d5;stroke-width:0.0335232"
       d=""
       id="path2210"
       transform="scale(0.26458333)" /><g
       style="fill:#fff6d5"
       id="g2253"
       transform="matrix(15.119048,0,0,15.119048,58.993342,37.245296)"><path
         d="M 7.8169235,18.135501 C 6.8218684,17.146242 6.0077264,16.261872 6.0077264,16.169689 c 0,-0.09121 0.6081798,-1.051147 1.351507,-2.131609 C 8.1025606,12.957617 8.7097633,12.001911 8.7085579,11.914288 8.7073528,11.826338 8.3669921,10.912974 7.9521687,9.8836519 7.3485819,8.3862486 7.1466262,7.9885271 6.9407291,7.8921079 6.7993601,7.8269623 5.7010469,7.5956903 4.5002576,7.3836361 3.2995006,7.1686521 2.258582,6.9494313 2.1871158,6.8934049 2.0893964,6.8184878 2.0574726,6.167342 2.0587772,4.2829639 2.0596567,2.9034776 2.0946083,1.7217099 2.1366286,1.6568894 2.1786489,1.591746 3.265626,1.3441837 4.5521488,1.1050949 5.8386717,0.86730843 6.9877669,0.63212687 7.1056505,0.58424451 7.2580938,0.5223518 7.5359138,-0.01250244 8.0673177,-1.2675597 c 0.4110124,-0.9706896 0.7472688,-1.8560374 0.7472688,-1.9674377 0,-0.1107502 -0.6144666,-1.0886063 -1.3654485,-2.1710235 C 6.6981217,-6.4884384 6.0598765,-7.4604315 6.0308537,-7.5659697 5.9914397,-7.709293 6.4385759,-8.219394 7.7850992,-9.5672854 c 0.99385,-0.9951206 1.8568848,-1.8094576 1.9178951,-1.8094576 0.060913,0 1.0439477,0.638115 2.1843137,1.4175986 1.140399,0.7794837 2.152944,1.4394228 2.250177,1.4661331 0.184688,0.052117 3.474647,-1.2540797 3.689209,-1.4635274 0.09903,-0.097719 0.591698,-2.4677683 1.013232,-4.8759263 0.04984,-0.28339 0.129964,-0.404237 0.297395,-0.44528 0.126067,-0.03257 1.32877,-0.04235 2.672492,-0.03257 l 2.443111,0.03257 0.122795,0.497397 c 0.06743,0.273617 0.293161,1.443006 0.501665,2.59904 0.208476,1.156033 0.433878,2.155714 0.501045,2.2218378 0.143332,0.1400649 3.438457,1.4912147 3.638981,1.4912147 0.07492,0 0.858279,-0.4951172 1.740533,-1.1000071 0.88222,-0.6052154 1.838382,-1.2599424 2.124767,-1.4553834 0.286322,-0.195441 0.567594,-0.355377 0.624891,-0.355377 0.05733,0 0.917336,0.814012 1.911184,1.8091319 1.33698,1.3387706 1.793824,1.8592952 1.756266,2.0013156 -0.02932,0.104236 -0.666127,1.0873033 -1.41825,2.181447 -0.752154,1.0938182 -1.367534,2.0632054 -1.367534,2.153434 0,0.1791552 1.426654,3.59774088 1.562715,3.74464943 0.04592,0.0488683 1.175154,0.29641767 2.509266,0.54495297 1.334112,0.2508173 2.484152,0.4772025 2.555621,0.5042394 0.09903,0.039095 0.129963,0.6628699 0.129963,2.6391032 0,1.9478962 -0.03257,2.6146756 -0.129963,2.6915495 -0.07134,0.05537 -1.112418,0.2768747 -2.313176,0.4902313 -1.200757,0.2117269 -2.295976,0.4423467 -2.433793,0.5084718 -0.196098,0.094464 -0.415215,0.5267145 -1.008542,1.9915439 -0.416875,1.029322 -0.760232,1.932588 -0.763035,2.007507 -0.0028,0.07492 0.6031,1.026717 1.346426,2.114998 0.743329,1.087955 1.351507,2.057667 1.351507,2.154736 0,0.09772 -0.814142,0.985674 -1.809229,1.974931 -1.688609,1.678513 -1.824702,1.790241 -2.041902,1.673953 -0.128004,-0.06839 -1.040006,-0.680787 -2.02669,-1.360595 -0.986684,-0.679808 -1.863662,-1.236165 -1.948873,-1.236165 -0.08534,0 -0.556942,0.214978 -1.04828,0.475248 -0.491338,0.260587 -0.935738,0.449189 -0.987565,0.41694 -0.0518,-0.03257 -0.338894,-0.655053 -0.637951,-1.384699 -0.299025,-0.729647 -1.076261,-2.608159 -1.727177,-4.174294 -0.650883,-1.566135 -1.18346,-2.907188 -1.18346,-2.9798253 0,-0.071666 0.293161,-0.34137 0.651404,-0.597072 1.261344,-0.9000062 1.859981,-1.6544084 2.317117,-2.9198895 0.504009,-1.3951221 0.417233,-2.7651641 -0.264823,-4.178854 -0.887464,-1.8394257 -2.835457,-3.0586519 -4.886969,-3.0586519 -2.325455,0 -4.51612,1.61108566 -5.199642,3.823803 -0.281109,0.9101028 -0.281109,2.3579962 0,3.268099 0.36834,1.1925165 1.260237,2.3179306 2.522622,3.1834082 0.271662,0.1856781 0.493813,0.4000034 0.493813,0.4745955 0,0.074917 -0.276547,0.809451 -0.614759,1.632583 -2.066527,5.030003 -2.80259,6.774641 -2.899041,6.871058 -0.07589,0.07492 -0.383096,-0.03582 -1.012253,-0.371664 -0.496877,-0.263846 -0.972157,-0.480785 -1.056195,-0.480785 -0.08405,0 -0.955904,0.554075 -1.937538,1.231278 -0.981635,0.677203 -1.894637,1.289261 -2.0288402,1.360596 -0.2319233,0.123785 -0.3344973,0.03909 -2.0532705,-1.669067 z"
         id="path2244"
         style="fill:#fff6d5;stroke-width:3.25734" /></g></g></svg>
